<mxfile>
    <diagram id="9j5gI6zCdSWci7VIc79C" name="ページ1">
        <mxGraphModel dx="759" dy="404" grid="1" gridSize="10" guides="1" tooltips="1" connect="1" arrows="1" fold="1" page="1" pageScale="1" pageWidth="827" pageHeight="1169" math="0" shadow="0">
            <root>
                <mxCell id="0"/>
                <mxCell id="1" parent="0"/>
                <mxCell id="4" value="" style="rounded=0;whiteSpace=wrap;html=1;fillColor=#FFFFFF;strokeColor=none;" vertex="1" parent="1">
                    <mxGeometry x="40" y="40" width="170" height="130" as="geometry"/>
                </mxCell>
                <mxCell id="2" value="都市計画&lt;br&gt;&lt;br&gt;&lt;br&gt;&lt;br&gt;&lt;br&gt;&lt;br&gt;" style="rounded=1;labelPosition=center;verticalLabelPosition=middle;align=center;verticalAlign=middle;whiteSpace=wrap;html=1;" vertex="1" parent="1">
                    <mxGeometry x="50" y="50" width="150" height="110" as="geometry"/>
                </mxCell>
                <mxCell id="3" value="地区計画" style="rounded=1;whiteSpace=wrap;html=1;" vertex="1" parent="1">
                    <mxGeometry x="82.5" y="100" width="85" height="40" as="geometry"/>
                </mxCell>
            </root>
        </mxGraphModel>
    </diagram>
</mxfile>